<?xml version="1.0" encoding="utf-8"?>
<!-- Generator: Adobe Illustrator 16.0.0, SVG Export Plug-In . SVG Version: 6.00 Build 0)  -->
<!DOCTYPE svg PUBLIC "-//W3C//DTD SVG 1.0//EN" "http://www.w3.org/TR/2001/REC-SVG-20010904/DTD/svg10.dtd">
<svg version="1.0" id="Calque_1" xmlns="http://www.w3.org/2000/svg" xmlns:xlink="http://www.w3.org/1999/xlink" x="0px" y="0px"
	 width="100px" height="100px" viewBox="0 0 100 100" enable-background="new 0 0 100 100" xml:space="preserve">
<path fill="#040506" d="M31.361,162.285c2.035,1.957,11.004,9.568,16.428,2.109c0.869-1.197,0.676-2.381,0.977-3.482l0.117-23.492
	c-0.285-0.592-0.646-1.197-1.094-1.812c-5.424-7.463-14.393,0.15-16.428,2.109C29.326,139.678,19.906,150,19.906,150l-0.094,0.096
	C19.812,150.096,29.326,160.324,31.361,162.285z"/>
<circle fill="#040506" cx="14.621" cy="150" r="2.23"/>
<rect x="51.479" y="137.5" fill="#040506" width="3.334" height="25"/>
<rect x="58.471" y="149.514" fill="#040506" width="29.139" height="0.975"/>
<path fill="#FFFFFF" d="M31.362,37.717C29.327,39.678,19.907,50,19.907,50l-0.094,0.096c0,0,9.514,10.229,11.549,12.189
	c2.035,1.958,11.004,9.569,16.428,2.109c0.869-1.196,0.676-2.38,0.977-3.482l0.117-23.491c-0.285-0.592-0.646-1.197-1.094-1.812
	C42.366,28.145,33.397,35.758,31.362,37.717z"/>
<circle fill="#FFFFFF" cx="14.622" cy="50" r="2.23"/>
<rect x="51.479" y="37.5" fill="#FFFFFF" width="3.334" height="25"/>
<rect x="58.472" y="49.513" fill="#FFFFFF" width="29.138" height="0.975"/>
</svg>
