<?xml version="1.0" encoding="UTF-8"?>
<svg width="1063px" height="151px" viewBox="0 0 1063 151" version="1.1" xmlns="http://www.w3.org/2000/svg" xmlns:xlink="http://www.w3.org/1999/xlink">
    <!-- Generator: Sketch 51 (57462) - http://www.bohemiancoding.com/sketch -->
    <title>Group</title>
    <desc>Created with Sketch.</desc>
    <defs></defs>
    <g id="Page-1" stroke="none" stroke-width="1" fill="none" fill-rule="evenodd">
        <g id="Group" fill="#FFFFFF" fill-rule="nonzero">
            <g id="B_lanche" transform="translate(557.000000, 2.000000)">
                <g id="e_1_" transform="translate(440.000000, 71.000000)">
                    <path d="M14.7,35.4 L57.8,35.4 C60.1,35.4 65.2,35.4 65.2,31.3 C65.2,22 57.5,0.2 33.6,0.2 C13.6,0.2 -0.8,17.1 0.6,41.1 C1.5,57.4 11.6,77.8 37,77.8 C45.9,77.8 52.9,74.9 58.1,70.2 C58.1,70.2 58.1,70.2 58.1,70.2 C58.2,70.1 58.2,69.8 58.1,69.6 C57.9,69.4 57.4,69.6 57.4,69.6 C57.4,69.6 48,76.2 39,76.2 C37.6,76.2 36.3,76.1 35.1,75.8 C33.6,75.6 32.1,75.1 30.7,74.3 C25.5,71.5 20.9,65 18,56.9 C18,56.9 18,56.8 18,56.8 C16.2,51.8 15.1,46.2 14.9,40.4 C14.8,38.8 14.8,37.2 14.9,35.6 C14.7,35.4 14.7,35.4 14.7,35.4 Z M34.1,2.2 C49.8,2.2 54.7,30.1 54.7,31.5 C54.7,32.9 53,33 53,33 L14.8,33 C14.7,33 16.2,2.2 34.1,2.2 Z" id="Shape"></path>
                </g>
                <g id="h" transform="translate(364.000000, 34.000000)">
                    <path d="M1.7,114.8 L12.8,114.8 L12.8,57.2 C12.8,57.2 19.4,44.2 30.5,44.2 C46.5,44.2 51,60 51,65.4 C51,69.6 51,114.9 51,114.9 L62,114.9 C62,114.9 62,64.9 62,60.9 C62,48.2 52.6,37.2 38.5,37.2 C22.8,37.2 12.8,53.5 12.8,53.5 L12.8,0.8 C12.8,0.8 8.2,5 1.7,5 C1,5 0.5,5.4 0.5,5.9 C0.5,7 1.7,7 1.7,7 L1.7,114.8 Z" id="Shape"></path>
                </g>
                <g id="c" transform="translate(290.000000, 70.000000)">
                    <path d="M34.6,3 C46.6,3 50.4,12.7 50.4,19.6 C50.4,22.7 53,24.7 55.9,24.7 C59.3,24.7 60.8,22.1 60.8,18.2 C60.8,12.8 50.3,0.9 33.3,0.9 C13.3,0.9 -1.1,17.8 0.3,41.8 C1.2,58.1 11.3,78.5 36.7,78.5 C45.6,78.5 52.6,75.6 57.8,70.9 C57.8,70.9 57.8,70.9 57.8,70.9 C57.9,70.8 57.9,70.5 57.8,70.3 C57.6,70.1 57.1,70.3 57.1,70.3 C57.1,70.3 47.7,76.9 38.7,76.9 C37.3,76.9 36,76.8 34.8,76.5 C33.3,76.3 31.8,75.8 30.4,75 C25.2,72.2 20.6,65.7 17.7,57.6 C17.7,57.6 17.7,57.5 17.7,57.5 C15.9,52.5 14.6,46.9 14.6,41.1 C14.4,33.4 14.8,3 34.6,3 Z" id="Shape"></path>
                </g>
                <g id="n_1_" transform="translate(213.000000, 71.000000)">
                    <path d="M1.6,77.8 L12.7,77.8 L12.7,20.4 C12.7,20.4 18.8,7.1 31.1,7.1 C41.7,7.1 50.8,17.7 50.8,28.4 C50.8,34.4 50.8,77.8 50.8,77.8 L61.7,77.8 C61.7,77.8 61.7,29.1 61.7,23.1 C61.7,14.6 54.9,0.2 38.6,0.2 C22.8,0.2 12.7,16.5 12.7,16.5 L12.7,0.2 C12.7,0.2 8.1,4.4 1.6,4.4 C0.9,4.4 0.4,4.8 0.4,5.3 C0.4,6.4 1.6,6.4 1.6,6.4 L1.6,77.8 Z" id="Shape"></path>
                </g>
                <g id="a" transform="translate(134.000000, 71.000000)">
                    <path d="M33.9,0.2 C22.8,0.2 6.2,7.6 6.2,18.5 C6.2,23 10.3,23.6 11.2,23.6 C14.1,23.6 16.4,21.4 16.4,19.1 C16.4,12.9 21.4,2.8 32.3,2.8 C52.9,2.8 49.8,32.7 49.8,32.7 C49.8,32.7 41,34.3 30.8,37.9 C17.3,42.7 0.6,48.1 0.6,64.3 C0.6,69 3.3,77.8 18.5,77.8 C40.4,77.8 49.8,64.9 49.8,64.9 L49.8,77.8 L61,77.8 L61,22.7 C61,22.7 60.4,0.2 33.9,0.2 Z M49.8,63.1 C49.8,63.1 41.2,73.4 28.7,73.4 C26.3,73.4 14.9,73.4 14.9,56.9 C14.9,46.5 26.1,41.4 38,37.7 C44.6,35.7 49.8,34.7 49.8,34.7 L49.8,63.1 Z" id="Shape"></path>
                </g>
                <g id="l" transform="translate(106.000000, 34.000000)">
                    <path d="M1.4,114.8 L12.5,114.8 L12.5,0.8 C12.5,0.8 7.9,5 1.4,5 C0.7,5 0.2,5.4 0.2,5.9 C0.2,7 1.4,7 1.4,7 L1.4,114.8 Z" id="Shape"></path>
                </g>
                <g id="B">
                    <path d="M64.8,68.5 C64.8,68.5 80.8,62.2 80.8,34.8 C80.8,4.6 55.1,0 51.4,0 C47.7,0 0.5,0 0.5,0 L0.5,148.9 C0.5,148.9 34.3,148.9 51,148.9 C60.6,148.9 91.6,150.1 91.6,109 C91.7,70.7 64.8,68.5 64.8,68.5 Z M15,5.2 C15,5.2 15.6,3 17.2,3 L37.2,3 C40.6,3 68.5,2.5 68.5,35 C68.5,71.3 38.2,67.5 35.5,67.5 L17.4,67.5 C16.6,67.5 15.1,66 15.1,66 L15.1,5.2 L15,5.2 Z M44.8,145.2 L17.8,145.2 C16.2,145.2 15,143.8 15,143 C15,141.7 15,74.1 15,74.1 C15,74.1 15.3,72.3 16.8,72.3 L47.8,72.3 C54.4,72.3 78.3,76.2 78.3,110.7 C78.3,142.8 52.7,145.2 44.8,145.2 Z" id="Shape"></path>
                </g>
            </g>
            <g id="Hedone">
                <g id="e_fin" transform="translate(415.000000, 71.000000)">
                    <path d="M14.3,35.4 L57.4,35.4 C59.7,35.4 64.8,35.4 64.8,31.3 C64.8,22 57.1,0.2 33.2,0.2 C13.2,0.2 -1.2,17.1 0.2,41.1 C1.1,57.4 11.2,77.8 36.6,77.8 C45.5,77.8 52.5,74.9 57.7,70.2 C57.7,70.2 57.7,70.2 57.7,70.2 C57.8,70.1 57.8,69.8 57.7,69.6 C57.5,69.4 57,69.6 57,69.6 C57,69.6 47.6,76.2 38.6,76.2 C37.2,76.2 35.9,76.1 34.7,75.8 C33.2,75.6 31.7,75.1 30.3,74.3 C25.1,71.5 20.5,65 17.6,56.9 C17.6,56.9 17.6,56.8 17.6,56.8 C15.8,51.8 14.7,46.2 14.5,40.4 C14.4,38.8 14.4,37.2 14.5,35.6 C14.3,35.4 14.3,35.4 14.3,35.4 Z M33.6,2.2 C49.3,2.2 54.2,30.1 54.2,31.5 C54.2,32.9 52.5,33 52.5,33 L14.3,33 C14.3,33 15.8,2.2 33.6,2.2 Z" id="Shape"></path>
                </g>
                <g id="n" transform="translate(340.000000, 71.000000)">
                    <path d="M1.19412724,78 L12.2398042,78 L12.2398042,20.3041237 C12.2398042,20.3041237 18.3099511,6.93556701 30.5497553,6.93556701 C41.0978793,6.93556701 50.1533442,17.5902062 50.1533442,28.3453608 C50.1533442,34.3762887 50.1533442,78 50.1533442,78 L61,78 C61,78 61,29.0489691 61,23.0180412 C61,14.4742268 54.233279,0 38.0130506,0 C22.2903752,0 12.2398042,16.3840206 12.2398042,16.3840206 L12.2398042,0 C12.2398042,0 7.66231648,4.22164948 1.19412724,4.22164948 C0.497553018,4.22164948 0,4.62371134 0,5.12628866 C0,6.23195876 1.19412724,6.23195876 1.19412724,6.23195876 L1.19412724,78 Z" id="Shape"></path>
                </g>
                <path d="M256.173479,111.700284 C257.873479,128.400284 266.773479,148.300284 292.473479,148.300284 C322.173479,148.300284 325.273479,115.000284 325.273479,115.000284 C325.273479,115.000284 322.873479,127.800284 315.473479,135.500284 C310.173479,141.100284 303.473479,145.000284 293.573479,142.800284 C280.073479,139.700284 270.573479,124.700284 270.273479,111.000284 C269.973479,97.3002844 274.573479,82.4002844 289.573479,76.2002844 C295.973479,73.5002844 303.373479,74.3002844 310.373479,79.0002844 C322.873479,87.4002844 324.373479,99.8002844 324.373479,99.8002844 C324.373479,99.8002844 319.873479,71.0002844 289.073479,71.0002844 C262.673479,70.9002844 254.673479,97.2002844 256.173479,111.700284 Z" id="Shape"></path>
                <g id="d" transform="translate(181.000000, 34.000000)">
                    <path d="M50.1,5 C49.4,5 48.9,5.4 48.9,5.9 C48.9,7 50.1,7 50.1,7 L50.1,40.9 C50.1,40.9 42.5,36.9 32.4,37.2 C13.8,37.8 -3.5,53.7 1,83.6 C3.1,97.6 13.4,114.8 36.8,114.8 C45.1,114.8 50.1,112.2 50.1,112.2 L50.1,114.8 L61.2,114.8 L61.2,0.8 C61.2,0.8 56.6,5 50.1,5 Z M37.2,112.8 C25.5,113.9 15.8,95.4 14.7,79 C13.1,53.9 23.4,39.6 33.6,39.1 C43.8,38.6 50.2,52.9 50.2,52.9 L50.3,101.6 C50.3,101.6 45.6,112 37.2,112.8 Z" id="Shape"></path>
                </g>
                <g id="e" transform="translate(106.000000, 71.000000)">
                    <path d="M14.5,35.4 L57.6,35.4 C59.9,35.4 65,35.4 65,31.3 C65,22 57.3,0.2 33.4,0.2 C13.4,0.2 -1,17.1 0.4,41.1 C1.3,57.4 11.4,77.8 36.8,77.8 C45.7,77.8 52.7,74.9 57.9,70.2 C57.9,70.2 57.9,70.2 57.9,70.2 C58,70.1 58,69.8 57.9,69.6 C57.7,69.4 57.2,69.6 57.2,69.6 C57.2,69.6 47.8,76.2 38.8,76.2 C37.4,76.2 36.1,76.1 34.9,75.8 C33.4,75.6 31.9,75.1 30.5,74.3 C25.3,71.5 20.7,65 17.8,56.9 C17.8,56.9 17.8,56.8 17.8,56.8 C16,51.8 14.9,46.2 14.7,40.4 C14.6,38.8 14.6,37.2 14.7,35.6 C14.5,35.4 14.5,35.4 14.5,35.4 Z M33.8,2.2 C49.5,2.2 54.4,30.1 54.4,31.5 C54.4,32.9 52.7,33 52.7,33 L14.5,33 C14.4,33 16,2.2 33.8,2.2 Z" id="Shape"></path>
                </g>
                <g id="H">
                    <path d="M0.1,0 L14.5,0 C14.5,0 14.5,65.9 14.5,66.1 C14.5,67.2 16.1,67.7 16.6,67.7 C17.1,67.7 74.4,67.7 75.3,67.7 C76,67.7 77.4,66.8 77.4,66.1 C77.4,65.3 77.4,0 77.4,0 L91.8,0 L91.8,148.8 L77.4,148.8 C77.4,148.8 77.4,75.3 77.4,73.9 C77.4,73.1 76.1,72.3 75.3,72.3 C74.7,72.3 17.2,72.3 16.6,72.3 C15.9,72.3 14.5,72.9 14.5,73.9 C14.5,74.9 14.5,148.8 14.5,148.8 L0.1,148.8 L0.1,0 Z" id="Shape"></path>
                </g>
            </g>
        </g>
    </g>
</svg>