<?xml version="1.0" encoding="utf-8"?>
<!-- Generator: Adobe Illustrator 22.1.0, SVG Export Plug-In . SVG Version: 6.00 Build 0)  -->
<svg version="1.1" xmlns="http://www.w3.org/2000/svg" xmlns:xlink="http://www.w3.org/1999/xlink" x="0px" y="0px"
	 viewBox="0 0 1190.6 841.9" style="enable-background:new 0 0 1190.6 841.9;" xml:space="preserve">
<style type="text/css">
	.st0{display:none;}
	.st1{display:inline;}
	.st2{clip-path:url(#SVGID_2_);}
	.st3{opacity:0.26;clip-path:url(#SVGID_4_);}
	.st4{opacity:0.26;clip-path:url(#SVGID_8_);}
	.st5{clip-path:url(#SVGID_16_);}
	.st6{clip-path:url(#SVGID_18_);}
	.st7{display:inline;fill:#DB3932;}
	.st8{display:none;opacity:0.26;}
</style>
<g id="logo" class="st0">
	<g class="st1">
		<g>
			<defs>
				<rect id="SVGID_1_" x="-2.1" y="0.1" width="1190.6" height="841.9"/>
			</defs>
			<clipPath id="SVGID_2_">
				<use xlink:href="#SVGID_1_"  style="overflow:visible;"/>
			</clipPath>
			<g class="st2">
				<defs>
					<rect id="SVGID_3_" x="-2.1" y="0.5" width="1182.6" height="841.5"/>
				</defs>
				<clipPath id="SVGID_4_">
					<use xlink:href="#SVGID_3_"  style="overflow:visible;"/>
				</clipPath>
				<g class="st3">
					<g>
						<defs>
							<rect id="SVGID_5_" x="318.7" y="148.2" width="512.9" height="572.8"/>
						</defs>
						<clipPath id="SVGID_6_">
							<use xlink:href="#SVGID_5_"  style="overflow:visible;"/>
						</clipPath>
					</g>
				</g>
			</g>
			<g class="st2">
				<defs>
					<rect id="SVGID_7_" x="-2.1" y="0.4" width="1184.6" height="841.6"/>
				</defs>
				<clipPath id="SVGID_8_">
					<use xlink:href="#SVGID_7_"  style="overflow:visible;"/>
				</clipPath>
				<g class="st4">
					<g>
						<defs>
							<rect id="SVGID_9_" x="320.7" y="148.1" width="512.8" height="572.8"/>
						</defs>
						<clipPath id="SVGID_10_">
							<use xlink:href="#SVGID_9_"  style="overflow:visible;"/>
						</clipPath>
					</g>
				</g>
			</g>
			<g class="st2">
				<defs>
					<rect id="SVGID_11_" x="-2.1" y="0.2" width="1188.6" height="841.8"/>
				</defs>
				<clipPath id="SVGID_12_">
					<use xlink:href="#SVGID_11_"  style="overflow:visible;"/>
				</clipPath>
			</g>
			<g class="st2">
				<defs>
					<rect id="SVGID_13_" x="-2.1" y="0.2" width="1188.6" height="841.8"/>
				</defs>
				<clipPath id="SVGID_14_">
					<use xlink:href="#SVGID_13_"  style="overflow:visible;"/>
				</clipPath>
			</g>
			<g class="st2">
				<defs>
					<rect id="SVGID_15_" x="-2.1" y="0.1" width="1190.6" height="841.9"/>
				</defs>
				<clipPath id="SVGID_16_">
					<use xlink:href="#SVGID_15_"  style="overflow:visible;"/>
				</clipPath>
				<path class="st5" d="M722.6,519.1v5.8c0,0-5.4-2.5-10.5-2.5c-4.3,0-10.3,2.3-10.3,7.6c0,6,5.8,9.7,8.4,11.5
					c2.6,1.8,14.3,8.4,14.3,17.8c0,9.5-4.9,15.9-15.2,15.9c-10.3,0-14.2-2.5-14.2-2.5v-6.3c0,0,8.5,3.1,14,3.1c5.5,0,10-2.2,10-9.4
					c0-7-8.2-11.6-11.5-13.8c-3.3-2.2-11.6-7.4-11.6-15.7c0-9.4,8.3-14.1,16.7-14.1C717.6,516.6,722.6,519.1,722.6,519.1"/>
				<rect x="648.8" y="518.2" class="st5" width="5.9" height="55.6"/>
				<path class="st5" d="M593.8,545c0,0,12,0.3,12-13.8c0-8.3-7.2-12.9-10.7-12.9h-19.7v55.6h5.8c0,0-0.2-27.4-0.2-27.9
					c0-0.5,0.4-0.7,0.7-0.7h5.6l18.1,28.7h6.7L593.8,545z M581.8,541.8c-0.5,0-0.8-0.5-0.8-0.6v-19.4c0-0.3,0.1-0.6,0.6-0.6h9.3
					c1.3,0,8.3,1.5,8.3,10c0,8.5-5.2,10.7-9.1,10.7H581.8z"/>
				<path class="st5" d="M517.1,518.3H513l-19.9,55.6h6l5.9-16.6h20.2l5.9,16.6h5.8L517.1,518.3z M522.7,553.8h-15.4
					c-1.1,0-0.7-1-0.5-1.5c0.3-0.8,8.5-23.8,8.5-23.8s8.1,23.3,8.3,23.8C523.7,552.7,523.9,553.8,522.7,553.8"/>
				<path class="st5" d="M448.6,518.3H430v55.6h5.8V546c0-0.3,0.1-0.7,0.7-0.7h12.3c4.3,0,11.6-3.5,11.6-13.3
					C460.3,522.1,453.9,518.3,448.6,518.3 M446,542h-9.5c-0.3,0-0.8-0.6-0.8-0.6v-19.6c0-0.5,0.2-0.7,0.7-0.7h9.2
					c0.9,0,8.3,0.8,8.3,10C453.9,540.3,447.7,542,446,542"/>
			</g>
			<g class="st2">
				<defs>
					<rect id="SVGID_17_" x="-2.1" y="0.1" width="1190.6" height="841.9"/>
				</defs>
				<clipPath id="SVGID_18_">
					<use xlink:href="#SVGID_17_"  style="overflow:visible;"/>
				</clipPath>
				<path class="st6" d="M1075.7,392.5h43.1c2.3,0,7.4,0,7.4-4.1c0-9.3-7.7-31.1-31.6-31.1c-20,0-34.4,16.9-33,40.9
					c0.9,16.3,11,36.7,36.4,36.7c8.9,0,15.9-2.9,21.1-7.6c0,0,0,0,0,0c0.1-0.1,0.1-0.4,0-0.6c-0.2-0.3-0.7,0-0.7,0
					s-9.4,6.6-18.4,6.6c-1.4,0-2.7-0.1-3.9-0.4c-1.5-0.2-3-0.7-4.4-1.5c-5.2-2.8-9.8-9.3-12.7-17.4c0,0,0-0.1,0-0.1
					c-1.8-5-2.9-10.6-3.1-16.4c-0.1-1.6-0.1-3.2,0-4.8V392.5z M1095.1,359.3c15.7,0,20.6,27.9,20.6,29.3c0,1.4-1.7,1.5-1.7,1.5
					h-38.2C1075.7,390.2,1077.2,359.3,1095.1,359.3"/>
				<path class="st6" d="M986.7,435h11.1v-57.6c0,0,6.6-13,17.7-13c16,0,20.5,15.8,20.5,21.2c0,4.2,0,49.5,0,49.5h11v-54
					c0-12.7-9.4-23.7-23.5-23.7c-15.7,0-25.7,16.3-25.7,16.3v-52.7c0,0-4.6,4.2-11.1,4.2c-0.7,0-1.2,0.4-1.2,0.9
					c0,1.1,1.2,1.1,1.2,1.1V435z"/>
				<path class="st6" d="M945.5,359.1c12,0,15.8,9.7,15.8,16.6c0,3.1,2.6,5.1,5.5,5.1c3.4,0,4.9-2.6,4.9-6.5
					c0-5.4-10.5-17.3-27.5-17.3c-20,0-34.4,16.9-33,40.9c0.9,16.3,11,36.7,36.4,36.7c8.9,0,15.9-2.9,21.1-7.6c0,0,0,0,0,0
					c0.1-0.1,0.1-0.4,0-0.6c-0.2-0.2-0.7,0-0.7,0s-9.4,6.6-18.4,6.6c-1.4,0-2.7-0.1-3.9-0.4c-1.5-0.2-3-0.7-4.4-1.5
					c-5.2-2.8-9.8-9.3-12.7-17.4c0,0,0-0.1,0-0.1c-1.8-5-3.1-10.6-3.1-16.4C925.4,389.5,925.8,359.1,945.5,359.1"/>
				<path class="st6" d="M835.6,435h11.1v-57.4c0,0,6.1-13.3,18.4-13.3c10.6,0,19.7,10.6,19.7,21.3c0,6,0,49.4,0,49.4l10.9,0
					c0,0,0-48.7,0-54.7c0-8.6-6.8-22.9-23.1-22.9c-15.8,0-25.9,16.3-25.9,16.3v-16.3c0,0-4.6,4.2-11.1,4.2c-0.7,0-1.2,0.4-1.2,0.9
					c0,1.1,1.2,1.1,1.2,1.1V435z"/>
				<path class="st6" d="M788.8,357.3c-11.1,0-27.7,7.4-27.7,18.3c0,4.5,4.1,5.1,5,5.1c2.9,0,5.2-2.2,5.2-4.5
					c0-6.2,5-16.3,15.9-16.3c20.6,0,17.5,29.9,17.5,29.9s-8.8,1.6-19,5.2c-13.5,4.8-30.2,10.2-30.2,26.4c0,4.7,2.7,13.5,17.9,13.5
					c21.9,0,31.3-12.9,31.3-12.9V435H816v-55.1C816,379.9,815.4,357.3,788.8,357.3 M804.8,420.2c0,0-8.6,10.3-21.1,10.3
					c-2.4,0-13.8,0-13.8-16.5c0-10.4,11.2-15.5,23.1-19.2c6.6-2,11.8-3,11.8-3V420.2z"/>
				<path class="st6" d="M728.4,435h11.1v-114c0,0-4.6,4.2-11.1,4.2c-0.7,0-1.2,0.4-1.2,0.9c0,1.1,1.2,1.1,1.2,1.1V435z"/>
				<path class="st6" d="M685.8,354.7c0,0,16-6.3,16-33.7c0-30.2-25.7-34.8-29.4-34.8h-50.9V435h50.5c9.6,0,40.6,1.2,40.6-39.9
					C712.7,356.8,685.8,354.7,685.8,354.7 M636,291.3c0,0,0.6-2.2,2.2-2.2h20c3.4,0,31.3-0.5,31.3,32c0,36.3-30.3,32.5-33,32.5
					h-18.1c-0.8,0-2.3-1.5-2.3-1.5V291.3z M665.8,431.3h-27c-1.6,0-2.8-1.4-2.8-2.2v-68.9c0,0,0.3-1.8,1.8-1.8h31
					c6.6,0,30.5,3.9,30.5,38.4C699.3,429,673.7,431.3,665.8,431.3"/>
				<path class="st6" d="M493.2,392.5h43.1c2.3,0,7.4,0,7.4-4.1c0-9.3-7.7-31.1-31.6-31.1c-20,0-34.4,16.9-33,40.9
					c0.9,16.3,11,36.7,36.4,36.7c8.9,0,15.9-2.9,21.1-7.6c0,0,0,0,0,0c0.1-0.1,0.1-0.4,0-0.6c-0.2-0.3-0.7,0-0.7,0
					s-9.4,6.6-18.4,6.6c-1.4,0-2.7-0.1-3.9-0.4c-1.5-0.2-3-0.7-4.4-1.5c-5.2-2.8-9.8-9.3-12.7-17.4c0,0,0-0.1,0-0.1
					c-1.8-5-2.9-10.6-3.1-16.4c-0.1-1.6-0.1-3.2,0-4.8V392.5z M512.6,359.3c15.7,0,20.6,27.9,20.6,29.3c0,1.4-1.7,1.5-1.7,1.5h-38.2
					C493.2,390.2,494.7,359.3,512.6,359.3"/>
				<path class="st6" d="M404.9,435h11.1v-57.4c0,0,6.1-13.3,18.4-13.3c10.6,0,19.7,10.6,19.7,21.3c0,6,0,49.4,0,49.4l10.9,0
					c0,0,0-48.7,0-54.7c0-8.6-6.8-22.9-23.1-22.9c-15.8,0-25.9,16.3-25.9,16.3v-16.3c0,0-4.6,4.2-11.1,4.2c-0.7,0-1.2,0.4-1.2,0.9
					c0,1.1,1.2,1.1,1.2,1.1V435z"/>
				<path class="st6" d="M319.7,398.3c1.7,16.7,10.6,36.6,36.3,36.6c29.7,0,32.8-33.3,32.8-33.3s-2.4,12.8-9.8,20.5
					c-5.3,5.6-12,9.5-21.9,7.3c-13.5-3.1-23-18.1-23.3-31.8c-0.3-13.7,4.3-28.6,19.3-34.8c6.4-2.7,13.8-1.9,20.8,2.8
					c12.5,8.4,14,20.8,14,20.8s-4.5-28.8-35.3-28.8C326.3,357.5,318.3,383.8,319.7,398.3"/>
				<path class="st6" d="M295.1,325.2c-0.7,0-1.2,0.4-1.2,0.9c0,1.1,1.2,1.1,1.2,1.1V361c0,0-7.6-4-17.7-3.7
					c-18.6,0.6-35.9,16.5-31.4,46.4c2.1,14,12.5,31.2,35.8,31.2c8.3,0,13.3-2.6,13.3-2.6v2.6h11.1v-114
					C306.2,320.9,301.6,325.2,295.1,325.2 M282.2,432.9c-11.7,1.1-21.4-17.4-22.5-33.8c-1.6-25.1,8.7-39.4,18.9-39.9
					c10.2-0.5,16.6,13.8,16.6,13.8l0.1,48.7C295.2,421.7,290.6,432.1,282.2,432.9"/>
				<path class="st6" d="M184.4,392.5h43.1c2.3,0,7.4,0,7.4-4.1c0-9.3-7.7-31.1-31.6-31.1c-20,0-34.4,16.9-33,40.9
					c0.9,16.3,11,36.7,36.4,36.7c8.9,0,15.9-2.9,21.1-7.6c0,0,0,0,0,0c0.1-0.1,0.1-0.4,0-0.6c-0.2-0.3-0.7,0-0.7,0
					s-9.4,6.6-18.4,6.6c-1.4,0-2.7-0.1-3.9-0.4c-1.5-0.2-3-0.7-4.4-1.5c-5.2-2.8-9.8-9.3-12.7-17.4c0,0,0-0.1,0-0.1
					c-1.8-5-2.9-10.6-3.1-16.4c-0.1-1.6-0.1-3.2,0-4.8V392.5z M203.7,359.3c15.7,0,20.6,27.9,20.6,29.3c0,1.4-1.7,1.5-1.7,1.5h-38.2
					C184.4,390.2,185.9,359.3,203.7,359.3"/>
				<path class="st6" d="M64,286.1l14.4,0v66.1c0,1.1,1.6,1.6,2.1,1.6h58.7c0.7,0,2.1-0.9,2.1-1.6v-66.1h14.4V435h-14.4v-74.9
					c0-0.8-1.3-1.6-2.1-1.6H80.5c-0.7,0-2.1,0.6-2.1,1.6V435H64V286.1z"/>
			</g>
		</g>
	</g>
</g>
<g id="Calque_23">
	<g id="S">
		<path d="M724.6,518.9v5.8c0,0-5.4-2.5-10.5-2.5c-4.3,0-10.3,2.3-10.3,7.6c0,6,5.8,9.7,8.4,11.5c2.6,1.8,14.3,8.4,14.3,17.8
			c0,9.5-4.9,15.9-15.2,15.9c-10.3,0-14.2-2.5-14.2-2.5v-6.3c0,0,8.5,3.1,14,3.1c5.5,0,10-2.2,10-9.4c0-7-8.2-11.6-11.5-13.8
			c-3.3-2.2-11.6-7.4-11.6-15.7c0-9.4,8.3-14,16.7-14C719.6,516.5,724.6,518.9,724.6,518.9z"/>
	</g>
	<g id="I">
		<rect x="650.8" y="518.1" width="5.9" height="55.6"/>
	</g>
	<g id="R">
		<path d="M595.8,544.8c0,0,12,0.3,12-13.8c0-8.3-7.2-12.9-10.7-12.9c-2.6,0-19.7,0-19.7,0v55.6h5.8c0,0-0.2-27.4-0.2-27.9
			c0-0.5,0.4-0.7,0.7-0.7c0.3,0,5.6,0,5.6,0l18.1,28.7h6.7L595.8,544.8z M583.9,541.7c-0.5,0-0.8-0.5-0.8-0.6v-19.4
			c0-0.3,0.1-0.6,0.6-0.6h9.3c1.3,0,8.3,1.5,8.3,10c0,8.5-5.2,10.7-9.1,10.7H583.9z"/>
	</g>
	<g id="A">
		<path d="M519.2,518.2H515l-19.9,55.6h6l5.9-16.6h20.2l5.9,16.6h5.8L519.2,518.2z M524.7,553.7h-15.4c-1.1,0-0.7-1-0.5-1.5
			c0.3-0.8,8.5-23.8,8.5-23.8s8.1,23.3,8.3,23.8C525.8,552.6,526,553.7,524.7,553.7z"/>
	</g>
	<g id="P">
		<path d="M450.6,518.2c-4.9,0-18.6,0-18.6,0v55.6h5.8c0,0,0-27.6,0-27.8c0-0.3,0.1-0.7,0.7-0.7h12.3c4.3,0,11.6-3.5,11.6-13.3
			C462.3,522,455.9,518.2,450.6,518.2z M448.1,541.9h-9.5c-0.3,0-0.8-0.6-0.8-0.6v-19.6c0-0.5,0.2-0.7,0.7-0.7h9.2
			c0.9,0,8.3,0.8,8.3,10C456,540.1,449.7,541.9,448.1,541.9z"/>
	</g>
</g>
<g id="Calque_2" class="st0">
	<line class="st7" x1="67.2" y1="314.9" x2="1144" y2="314.9"/>
	<line class="st7" x1="67.4" y1="391.9" x2="1144.2" y2="391.9"/>
	<line class="st7" x1="68" y1="387" x2="1144.8" y2="387"/>
	<line class="st7" x1="63.1" y1="475.9" x2="1145.8" y2="475.9"/>
	<line class="st7" x1="63.1" y1="430" x2="1145.8" y2="430"/>
	<line class="st7" x1="63.1" y1="427.4" x2="1145.8" y2="427.4"/>
</g>
<g id="Calque_24">
	<g id="B_lanche">
		<g id="e_1_">
			<path d="M1077.7,392.4h43.1c2.3,0,7.4,0,7.4-4.1c0-9.3-7.7-31.1-31.6-31.1c-20,0-34.4,16.9-33,40.9c0.9,16.3,11,36.7,36.4,36.7
				c8.9,0,15.9-2.9,21.1-7.6c0,0,0,0,0,0c0.1-0.1,0.1-0.4,0-0.6c-0.2-0.2-0.7,0-0.7,0s-9.4,6.6-18.4,6.6c-1.4,0-2.7-0.1-3.9-0.4
				c-1.5-0.2-3-0.7-4.4-1.5c-5.2-2.8-9.8-9.3-12.7-17.4c0,0,0-0.1,0-0.1c-1.8-5-2.9-10.6-3.1-16.4c-0.1-1.6-0.1-3.2,0-4.8
				C1077.7,392.4,1077.7,392.4,1077.7,392.4z M1097.1,359.2c15.7,0,20.6,27.9,20.6,29.3s-1.7,1.5-1.7,1.5h-38.2
				C1077.7,390,1079.2,359.2,1097.1,359.2z"/>
		</g>
		<g id="h">
			<path d="M988.7,434.8h11.1v-57.6c0,0,6.6-13,17.7-13c16,0,20.5,15.8,20.5,21.2c0,4.2,0,49.5,0,49.5h11c0,0,0-50,0-54
				c0-12.7-9.4-23.7-23.5-23.7c-15.7,0-25.7,16.3-25.7,16.3v-52.7c0,0-4.6,4.2-11.1,4.2c-0.7,0-1.2,0.4-1.2,0.9
				c0,1.1,1.2,1.1,1.2,1.1V434.8z"/>
		</g>
		<g id="c">
			<path d="M947.6,359c12,0,15.8,9.7,15.8,16.6c0,3.1,2.6,5.1,5.5,5.1c3.4,0,4.9-2.6,4.9-6.5c0-5.4-10.5-17.3-27.5-17.3
				c-20,0-34.4,16.9-33,40.9c0.9,16.3,11,36.7,36.4,36.7c8.9,0,15.9-2.9,21.1-7.6c0,0,0,0,0,0c0.1-0.1,0.1-0.4,0-0.6
				c-0.2-0.2-0.7,0-0.7,0s-9.4,6.6-18.4,6.6c-1.4,0-2.7-0.1-3.9-0.4c-1.5-0.2-3-0.7-4.4-1.5c-5.2-2.8-9.8-9.3-12.7-17.4
				c0,0,0-0.1,0-0.1c-1.8-5-3.1-10.6-3.1-16.4C927.4,389.4,927.8,359,947.6,359z"/>
		</g>
		<g id="n_1_">
			<path d="M837.6,434.8h11.1v-57.4c0,0,6.1-13.3,18.4-13.3c10.6,0,19.7,10.6,19.7,21.3c0,6,0,49.4,0,49.4l10.9,0c0,0,0-48.7,0-54.7
				c0-8.5-6.8-22.9-23.1-22.9c-15.8,0-25.9,16.3-25.9,16.3v-16.3c0,0-4.6,4.2-11.1,4.2c-0.7,0-1.2,0.4-1.2,0.9
				c0,1.1,1.2,1.1,1.2,1.1V434.8z"/>
		</g>
		<g id="a">
			<path d="M790.9,357.2c-11.1,0-27.7,7.4-27.7,18.3c0,4.5,4.1,5.1,5,5.1c2.9,0,5.2-2.2,5.2-4.5c0-6.2,5-16.3,15.9-16.3
				c20.6,0,17.5,29.9,17.5,29.9s-8.8,1.6-19,5.2c-13.5,4.8-30.2,10.2-30.2,26.4c0,4.7,2.7,13.5,17.9,13.5
				c21.9,0,31.3-12.9,31.3-12.9v12.9H818v-55.1C818,379.7,817.4,357.2,790.9,357.2z M806.8,420.1c0,0-8.6,10.3-21.1,10.3
				c-2.4,0-13.8,0-13.8-16.5c0-10.4,11.2-15.5,23.1-19.2c6.6-2,11.8-3,11.8-3V420.1z"/>
		</g>
		<g id="l">
			<path d="M730.4,434.8h11.1v-114c0,0-4.6,4.2-11.1,4.2c-0.7,0-1.2,0.4-1.2,0.9c0,1.1,1.2,1.1,1.2,1.1V434.8z"/>
		</g>
		<g id="B">
			<path d="M687.8,354.5c0,0,16-6.3,16-33.7c0-30.2-25.7-34.8-29.4-34.8c-3.7,0-50.9,0-50.9,0v148.9c0,0,33.8,0,50.5,0
				c9.6,0,40.6,1.2,40.6-39.9C714.7,356.7,687.8,354.5,687.8,354.5z M638,291.2c0,0,0.6-2.2,2.2-2.2h20c3.4,0,31.3-0.5,31.3,32
				c0,36.3-30.3,32.5-33,32.5h-18.1c-0.8,0-2.3-1.5-2.3-1.5V291.2z M667.8,431.2h-27c-1.6,0-2.8-1.4-2.8-2.2c0-1.3,0-68.9,0-68.9
				s0.3-1.8,1.8-1.8h31c6.6,0,30.5,3.9,30.5,38.4C701.3,428.8,675.7,431.2,667.8,431.2z"/>
		</g>
	</g>
	<g id="Hedone">
		<g id="e_fin">
			<path d="M495.3,392.4h43.1c2.3,0,7.4,0,7.4-4.1c0-9.3-7.7-31.1-31.6-31.1c-20,0-34.4,16.9-33,40.9c0.9,16.3,11,36.7,36.4,36.7
				c8.9,0,15.9-2.9,21.1-7.6c0,0,0,0,0,0c0.1-0.1,0.1-0.4,0-0.6c-0.2-0.2-0.7,0-0.7,0s-9.4,6.6-18.4,6.6c-1.4,0-2.7-0.1-3.9-0.4
				c-1.5-0.2-3-0.7-4.4-1.5c-5.2-2.8-9.8-9.3-12.7-17.4c0,0,0-0.1,0-0.1c-1.8-5-2.9-10.6-3.1-16.4c-0.1-1.6-0.1-3.2,0-4.8
				C495.3,392.4,495.3,392.4,495.3,392.4z M514.6,359.2c15.7,0,20.6,27.9,20.6,29.3s-1.7,1.5-1.7,1.5h-38.2
				C495.3,390,496.8,359.2,514.6,359.2z"/>
		</g>
		<g id="n">
			<path d="M406.9,434.8H418v-57.4c0,0,6.1-13.3,18.4-13.3c10.6,0,19.7,10.6,19.7,21.3c0,6,0,49.4,0,49.4l10.9,0c0,0,0-48.7,0-54.7
				c0-8.5-6.8-22.9-23.1-22.9c-15.8,0-25.9,16.3-25.9,16.3v-16.3c0,0-4.6,4.2-11.1,4.2c-0.7,0-1.2,0.4-1.2,0.9
				c0,1.1,1.2,1.1,1.2,1.1V434.8z"/>
		</g>
		<g id="o2">
			<path class="st0" d="M401.3,431.6c-1.1-21.7-15.2-39.7-39.4-39.7c-21.7,0-37.2,18.3-35.8,44.3c1,17.6,11.9,39.7,39.4,39.7
				C391.3,475.9,402.4,453.2,401.3,431.6z M366,473.7c-12.2,1.1-23.6-17.9-24.4-38.4c-0.9-22.1,7.4-40.6,19.8-41.4
				c10.8-0.7,21.4,13.3,23.6,33.4C387.4,450.6,379,472.5,366,473.7z"/>
			<path class="st8" d="M330.1,449.5c12.3,123.7,78.2,270.8,268.8,270.8c219.6,0,242.7-246.6,242.7-246.6s-18,94.4-72.3,151.7
				c-39.5,41.7-89,70.4-161.7,53.9c-100.1-22.7-170.2-133.6-172.5-235.3s32-211.3,142.5-257.4c47.3-19.7,102.4-14.2,153.9,20.6
				c92.2,62.2,103.6,153.8,103.6,153.8s-33.6-213.2-261.2-213.2C378.7,147.7,319.4,342.2,330.1,449.5z"/>
			<path d="M321.8,398.2c1.7,16.7,10.6,36.6,36.3,36.6c29.7,0,32.8-33.3,32.8-33.3s-2.4,12.8-9.8,20.5c-5.3,5.6-12,9.5-21.9,7.3
				c-13.5-3.1-23-18.1-23.3-31.8c-0.3-13.7,4.3-28.6,19.3-34.8c6.4-2.7,13.8-1.9,20.8,2.8c12.5,8.4,14,20.8,14,20.8
				s-4.5-28.8-35.3-28.8C328.3,357.4,320.3,383.7,321.8,398.2z"/>
		</g>
		<g id="d">
			<path d="M297.1,325c-0.7,0-1.2,0.4-1.2,0.9c0,1.1,1.2,1.1,1.2,1.1v33.9c0,0-7.6-4-17.7-3.7c-18.6,0.6-35.9,16.5-31.4,46.4
				c2.1,14,12.4,31.2,35.8,31.2c8.3,0,13.3-2.6,13.3-2.6v2.6h11.1v-114C308.2,320.8,303.6,325,297.1,325z M284.2,432.8
				c-11.7,1.1-21.4-17.4-22.5-33.8c-1.6-25.1,8.7-39.4,18.9-39.9c10.2-0.5,16.6,13.8,16.6,13.8l0.1,48.7
				C297.3,421.6,292.6,432,284.2,432.8z"/>
		</g>
		<g id="e">
			<path d="M186.5,392.4h43.1c2.3,0,7.4,0,7.4-4.1c0-9.3-7.7-31.1-31.6-31.1c-20,0-34.4,16.9-33,40.9c0.9,16.3,11,36.7,36.4,36.7
				c8.9,0,15.9-2.9,21.1-7.6c0,0,0,0,0,0c0.1-0.1,0.1-0.4,0-0.6c-0.2-0.2-0.7,0-0.7,0s-9.4,6.6-18.4,6.6c-1.4,0-2.7-0.1-3.9-0.4
				c-1.5-0.2-3-0.7-4.4-1.5c-5.2-2.8-9.8-9.3-12.7-17.4c0,0,0-0.1,0-0.1c-1.8-5-2.9-10.6-3.1-16.4c-0.1-1.6-0.1-3.2,0-4.8
				C186.5,392.4,186.5,392.4,186.5,392.4z M205.8,359.2c15.7,0,20.6,27.9,20.6,29.3s-1.7,1.5-1.7,1.5h-38.2
				C186.4,390,188,359.2,205.8,359.2z"/>
		</g>
		<g id="H">
			<path d="M66.1,286l14.4,0c0,0,0,65.9,0,66.1c0,1.1,1.6,1.6,2.1,1.6s57.8,0,58.7,0c0.7,0,2.1-0.9,2.1-1.6c0-0.8,0-66.1,0-66.1
				h14.4v148.8h-14.4c0,0,0-73.5,0-74.9c0-0.8-1.3-1.6-2.1-1.6c-0.6,0-58.1,0-58.7,0c-0.7,0-2.1,0.6-2.1,1.6c0,1,0,74.9,0,74.9H66.1
				V286z"/>
		</g>
	</g>
</g>
</svg>
