<?xml version="1.0" encoding="utf-8"?>
<!-- Generator: Adobe Illustrator 16.0.0, SVG Export Plug-In . SVG Version: 6.00 Build 0)  -->
<!DOCTYPE svg PUBLIC "-//W3C//DTD SVG 1.0//EN" "http://www.w3.org/TR/2001/REC-SVG-20010904/DTD/svg10.dtd">
<svg version="1.0" id="Calque_1" xmlns="http://www.w3.org/2000/svg" xmlns:xlink="http://www.w3.org/1999/xlink" x="0px" y="0px"
	 width="100px" height="100px" viewBox="0 0 100 100" enable-background="new 0 0 100 100" xml:space="preserve">
<path fill="#040506" d="M31.361,162.285c2.035,1.957,11.004,9.568,16.428,2.109c0.869-1.197,0.676-2.381,0.977-3.482l0.117-23.492
	c-0.285-0.592-0.646-1.197-1.094-1.812c-5.424-7.463-14.393,0.15-16.428,2.109C29.326,139.678,19.906,150,19.906,150l-0.094,0.096
	C19.812,150.096,29.326,160.324,31.361,162.285z"/>
<circle fill="#040506" cx="14.621" cy="150" r="2.23"/>
<rect x="51.479" y="137.5" fill="#040506" width="3.334" height="25"/>
<rect x="58.471" y="149.514" fill="#040506" width="29.139" height="0.975"/>
<polygon fill="#040506" points="48.577,60.567 48.577,51.896 42.548,45.867 41.527,46.468 41.527,46.476 35.722,46.476 
	35.722,55.599 41.538,55.599 "/>
<path fill="#040506" d="M65.136,51.029c0-3.892-1.438-7.62-4.051-10.502l-1.227,1.114c2.332,2.574,3.619,5.91,3.619,9.388
	c0,3.049-0.988,5.987-2.805,8.401l-2.029-2.029c1.252-1.872,1.93-4.068,1.93-6.372c0-3.069-1.193-5.954-3.363-8.125l-1.173,1.173
	c1.854,1.857,2.878,4.326,2.878,6.952c0,1.856-0.516,3.633-1.471,5.172l-2.106-2.106c0.439-0.951,0.676-1.992,0.676-3.065
	c0-2.247-1.012-4.341-2.771-5.743l-1.035,1.297c1.365,1.088,2.146,2.707,2.146,4.446c0,0.614-0.107,1.213-0.297,1.782l-5.479-5.477
	v-5.014l-3.156,1.856L34.033,32.79l-1.243,1.244L65.966,67.21l1.244-1.244l-5.355-5.355C63.976,57.876,65.136,54.519,65.136,51.029z
	"/>
</svg>
