<?xml version="1.0" encoding="utf-8"?>
<!-- Generator: Adobe Illustrator 16.0.0, SVG Export Plug-In . SVG Version: 6.00 Build 0)  -->
<!DOCTYPE svg PUBLIC "-//W3C//DTD SVG 1.1//EN" "http://www.w3.org/Graphics/SVG/1.1/DTD/svg11.dtd">
<svg version="1.1" id="Calque_1" xmlns="http://www.w3.org/2000/svg" xmlns:xlink="http://www.w3.org/1999/xlink" x="0px" y="0px"
	 width="100px" height="100px" viewBox="0 0 100 100" enable-background="new 0 0 100 100" xml:space="preserve">
<path fill="#040506" d="M31.361,162.285c2.035,1.957,11.004,9.568,16.428,2.109c0.869-1.197,0.676-2.381,0.977-3.482l0.117-23.492
	c-0.285-0.592-0.646-1.197-1.094-1.812c-5.424-7.463-14.393,0.15-16.428,2.109C29.326,139.678,19.906,150,19.906,150l-0.094,0.096
	C19.812,150.096,29.326,160.324,31.361,162.285z"/>
<circle fill="#040506" cx="14.621" cy="150" r="2.23"/>
<rect x="51.479" y="137.5" fill="#040506" width="3.334" height="25"/>
<rect x="58.471" y="149.514" fill="#040506" width="29.139" height="0.976"/>
<g>
	<path fill="none" stroke="#222221" stroke-miterlimit="10" d="M54.614,35.577c7.073,1.766,12.966,7.276,14.857,14.842
		c2.733,10.925-3.909,21.996-14.833,24.727c-10.923,2.731-21.994-3.909-24.725-14.832"/>
	<polyline fill="none" stroke="#222221" stroke-miterlimit="10" points="54.611,47.715 44.174,35.977 54.611,24.241 	"/>
</g>
</svg>
