<?xml version="1.0" encoding="utf-8"?>
<!-- Generator: Adobe Illustrator 16.0.0, SVG Export Plug-In . SVG Version: 6.00 Build 0)  -->
<!DOCTYPE svg PUBLIC "-//W3C//DTD SVG 1.0//EN" "http://www.w3.org/TR/2001/REC-SVG-20010904/DTD/svg10.dtd">
<svg version="1.0" id="Calque_1" xmlns="http://www.w3.org/2000/svg" xmlns:xlink="http://www.w3.org/1999/xlink" x="0px" y="0px"
	 width="100px" height="100px" viewBox="0 0 100 100" enable-background="new 0 0 100 100" xml:space="preserve">
<path fill="#040506" d="M31.361,162.285c2.035,1.957,11.004,9.568,16.428,2.109c0.869-1.197,0.676-2.381,0.977-3.482l0.117-23.492
	c-0.285-0.592-0.646-1.197-1.094-1.812c-5.424-7.463-14.393,0.15-16.428,2.109C29.326,139.678,19.906,150,19.906,150l-0.094,0.096
	C19.812,150.096,29.326,160.324,31.361,162.285z"/>
<circle fill="#040506" cx="14.621" cy="150" r="2.23"/>
<rect x="51.479" y="137.5" fill="#040506" width="3.334" height="25"/>
<rect x="58.471" y="149.514" fill="#040506" width="29.139" height="0.975"/>
<polygon fill="#FFFFFF" points="48.577,260.567 48.577,251.896 42.548,245.867 41.527,246.468 41.527,246.476 35.722,246.476 
	35.722,255.599 41.538,255.599 "/>
<path fill="#FFFFFF" d="M65.136,251.029c0-3.892-1.438-7.62-4.051-10.502l-1.227,1.114c2.332,2.574,3.619,5.91,3.619,9.388
	c0,3.049-0.988,5.987-2.805,8.401l-2.029-2.029c1.252-1.872,1.93-4.068,1.93-6.372c0-3.069-1.193-5.954-3.363-8.125l-1.173,1.173
	c1.854,1.857,2.878,4.326,2.878,6.952c0,1.856-0.516,3.633-1.471,5.172l-2.106-2.106c0.439-0.951,0.676-1.992,0.676-3.065
	c0-2.247-1.012-4.341-2.771-5.743l-1.035,1.297c1.365,1.088,2.146,2.707,2.146,4.446c0,0.614-0.107,1.213-0.297,1.782l-5.479-5.477
	v-5.014l-3.156,1.856L34.033,232.79l-1.243,1.244l33.176,33.176l1.244-1.244l-5.355-5.355
	C63.976,257.876,65.136,254.519,65.136,251.029z"/>
<path fill="#FFFFFF" d="M53.762,51.273c-0.008,0.025-0.012,0.051-0.02,0.074c-0.033,0.135-0.072,0.266-0.115,0.396v0.002
	c-0.35,1.039-0.996,1.967-1.889,2.666l1.021,1.305c0.936-0.73,1.66-1.656,2.143-2.695l0.004,0.004
	c0.439-0.949,0.676-1.99,0.676-3.062c0-2.246-1.01-4.34-2.77-5.742l-1.033,1.297c0.883,0.705,1.523,1.635,1.863,2.674l-0.006,0.01
	c0.182,0.57,0.287,1.17,0.283,1.783c-0.004,0.424-0.055,0.84-0.146,1.242C53.77,51.242,53.766,51.258,53.762,51.273z"/>
<path fill="#FFFFFF" d="M56.709,58.129c0.564-0.557,1.064-1.16,1.496-1.805l0.008,0.008c1.252-1.871,1.93-4.068,1.93-6.369
	c0-1.703-0.367-3.346-1.064-4.846c-0.059-0.123-0.117-0.246-0.18-0.365c-0.006-0.014-0.012-0.025-0.02-0.039
	c-0.051-0.098-0.104-0.197-0.158-0.295c-0.014-0.025-0.027-0.051-0.041-0.074c-0.055-0.1-0.113-0.199-0.174-0.299
	c-0.025-0.043-0.053-0.086-0.078-0.127c-0.033-0.055-0.066-0.107-0.102-0.16c-0.023-0.037-0.045-0.074-0.068-0.109v0.002
	c-0.426-0.646-0.92-1.25-1.479-1.811l-1.174,1.172c0.578,0.578,1.074,1.213,1.484,1.896c0.021,0.035,0.041,0.07,0.062,0.105
	c0.035,0.061,0.07,0.123,0.105,0.184c0.035,0.066,0.07,0.131,0.105,0.195c0.014,0.025,0.025,0.051,0.037,0.074
	c0.717,1.391,1.092,2.945,1.078,4.553c-0.02,2.627-1.062,5.086-2.934,6.928L56.709,58.129z"/>
<path fill="#FFFFFF" d="M63.555,44.076c-0.029-0.072-0.059-0.143-0.09-0.215c-0.014-0.037-0.029-0.072-0.045-0.109
	c-0.027-0.059-0.053-0.119-0.078-0.178c-0.023-0.049-0.045-0.096-0.068-0.145c-0.021-0.049-0.045-0.098-0.068-0.148
	c-0.027-0.062-0.059-0.121-0.088-0.184c-0.018-0.035-0.035-0.072-0.055-0.111c-0.039-0.08-0.08-0.158-0.121-0.236
	c-0.01-0.02-0.02-0.039-0.029-0.057c-0.406-0.777-0.881-1.521-1.418-2.227l-0.004,0.002c-0.264-0.344-0.541-0.682-0.836-1.006
	l-1.229,1.113c1.311,1.447,2.291,3.133,2.898,4.949c0.002,0.004,0.002,0.008,0.004,0.012c0.029,0.088,0.057,0.174,0.084,0.262
	c0.006,0.018,0.012,0.033,0.016,0.053c0.021,0.066,0.041,0.133,0.061,0.199c0.373,1.291,0.562,2.637,0.551,4.006
	c-0.027,3.479-1.34,6.801-3.693,9.357l1.219,1.123c0.299-0.324,0.582-0.658,0.85-1.004l0.008,0.01
	c2.121-2.734,3.281-6.092,3.281-9.58c0-2.021-0.389-3.998-1.127-5.832C63.568,44.111,63.562,44.094,63.555,44.076z"/>
<polygon fill="#FFFFFF" points="48.148,50.83 48.148,46.27 48.148,41.256 44.994,43.113 42.122,44.801 41.101,45.402 41.101,45.41 
	35.297,45.41 35.297,54.529 41.112,54.529 48.148,59.498 "/>
</svg>
